PathFileType	4	(X/Y/Z)	/Users/niels/Desktop/University/Third Semester/Perception and Action/Exam/Gymnastics Motion Tracking/Code for Gym Tracking/Analyzed Data/Webcam_Backflip/id1_8_trajectory_Sports2D/id1_8_trajectory_Sports2D_px_person00.trc
DataRate	CameraRate	NumFrames	NumMarkers	Units	OrigDataRate	OrigDataStartFrame	OrigNumFrames
29.71698113207547	29.71698113207547	10	22	m	29.71698113207547	53	106
Frame#	Time	Hip			RHip			RKnee			RAnkle			RBigToe			RSmallToe			RHeel			LHip			LKnee			LAnkle			LBigToe			LSmallToe			LHeel			Neck			Head			Nose			RShoulder			RElbow			RWrist			LShoulder			LElbow			LWrist		
		X1	Y1	Z1	X2	Y2	Z2	X3	Y3	Z3	X4	Y4	Z4	X5	Y5	Z5	X6	Y6	Z6	X7	Y7	Z7	X8	Y8	Z8	X9	Y9	Z9	X10	Y10	Z10	X11	Y11	Z11	X12	Y12	Z12	X13	Y13	Z13	X14	Y14	Z14	X15	Y15	Z15	X16	Y16	Z16	X17	Y17	Z17	X18	Y18	Z18	X19	Y19	Z19	X20	Y20	Z20	X21	Y21	Z21	X22	Y22	Z22
53	1.7834920634920632	0.9613247767389431	-0.5666702905390261	0.0	0.9601622630744148	-0.5608121902403059	0.0	0.9814287199026325	-0.6828457352977013	0.0	0.9628117056187416	-0.8152481382951003	0.0	1.008095708301192	-0.8521927494937941	0.0	0.9958115375555694	-0.8540716893582124	0.0	0.9487700474178076	-0.8330761359557415	0.0	0.969646411369309	-0.560232027735889	0.0	0.9765924676321911	-0.6806463300024084	0.0	0.9618397328169244	-0.8091174692021275	0.0	1.0041025767948075	-0.8412875657475045	0.0	0.9993138425791446	-0.8367325420465479	0.0	0.9477432825433175	-0.8232428531505847	0.0	0.9902344988287586	-0.39148254768279667	0.0	1.0491194192748885	-0.31693017182949074	0.0	1.042908963731137	-0.36994928525414184	0.0	0.9723869838417475	-0.39812626358282494	0.0	0.8987023320768541	-0.4251135580742961	0.0	0.835452207702601	-0.46279123839074504	0.0	0.9829045418727232	-0.40397724841572297	0.0	0.9240169284549246	-0.4373121869019307	0.0	0.888186478757715	-0.4711979834831484	0.0
54	1.817142857142857	0.9593471215691749	-0.5581313179834954	0.0	0.9587287251304568	-0.5519825860171309	0.0	0.9816078012870545	-0.6746818687691784	0.0	0.9657619362728299	-0.8074316962427874	0.0	1.0097898224272421	-0.8484070709982263	0.0	0.9974056477854656	-0.8499184577301432	0.0	0.9521731282540598	-0.8255207017264259	0.0	0.9669015374681168	-0.5514602454459467	0.0	0.9765386240456234	-0.6729015039502965	0.0	0.9641166238094948	-0.8029795843008091	0.0	1.005107725363239	-0.8380827891781922	0.0	0.9999392900004792	-0.8334929089231328	0.0	0.9500931401447027	-0.8162862678359121	0.0	0.9900029127442697	-0.3831665487869523	0.0	1.051313405595529	-0.3100231465533322	0.0	1.0443715277719916	-0.3626095205945575	0.0	0.9727889008649082	-0.3885090859844738	0.0	0.8946685161854815	-0.40949201858284173	0.0	0.8284863950477046	-0.43895259035531237	0.0	0.9815062474205685	-0.393896325872278	0.0	0.9222223452098312	-0.4213188285298968	0.0	0.8857662753849835	-0.4510119682132094	0.0
55	1.8507936507936507	0.9573917857866403	-0.5537929879122269	0.0	0.9573478229872837	-0.5473930767895084	0.0	0.9822255007890635	-0.6702094566071828	0.0	0.9679192457828685	-0.8030035677625076	0.0	1.0105771591981587	-0.8469176689827759	0.0	0.9982243001635851	-0.8481588208353111	0.0	0.9549545377942374	-0.8212436907087576	0.0	0.9641362559050337	-0.5468349236019241	0.0	0.9770488561643359	-0.6688182274548862	0.0	0.9660100489845347	-0.7998757885792154	0.0	1.0056199625051303	-0.8372988047323353	0.0	1.0001428223292357	-0.8328549411341175	0.0	0.9518240529091038	-0.8126036606476726	0.0	0.9896701158192742	-0.3788279502752822	0.0	1.0527855081228865	-0.30671249208768503	0.0	1.0452910418661066	-0.358757239581537	0.0	0.9734512615252613	-0.3832926941403983	0.0	0.8911284512026307	-0.3987811597812341	0.0	0.8219112204203258	-0.42148732838527775	0.0	0.9799955230323659	-0.38790328079062963	0.0	0.919625435785484	-0.41038216771312236	0.0	0.8811895601408087	-0.43710937046978177	0.0
56	1.8844444444444441	0.9555397809724346	-0.5532789377372187	0.0	0.955940247164131	-0.5466849771681185	0.0	0.983681011909986	-0.6692029660911174	0.0	0.9688555185043085	-0.8017508477486127	0.0	1.0105079034604887	-0.8470687964952784	0.0	0.9982531788755222	-0.8481477945752189	0.0	0.9563588657851673	-0.8199539962903396	0.0	0.9614855626465654	-0.5461034483943223	0.0	0.9785083798869766	-0.6680836147264065	0.0	0.9671051667986745	-0.7993703949761157	0.0	1.0057093614572408	-0.8380063004149793	0.0	1.0000098117560012	-0.8337977823085277	0.0	0.9525509832687418	-0.811918768962746	0.0	0.9894265372084073	-0.378428375406514	0.0	1.0536279112320888	-0.3070842687373634	0.0	1.0456488799235866	-0.3584756271144154	0.0	0.9742125031339021	-0.3826349573398559	0.0	0.8885304003869934	-0.39439313492138967	0.0	0.8165014127501252	-0.41323758437523467	0.0	0.9787657707456383	-0.3864050911435576	0.0	0.9163789457627828	-0.4059502649511316	0.0	0.8748017615782521	-0.43175128284371217	0.0
57	1.9180952380952379	0.9537779992986694	-0.5560064166690629	0.0	0.9543339543893716	-0.5493587218962912	0.0	0.9863235433655624	-0.6712541626998384	0.0	0.9684101210653053	-0.8032100352060685	0.0	1.0096876804875026	-0.848260376173585	0.0	0.9975123471450025	-0.8492633258692678	0.0	0.9559873462512901	-0.8211418390491773	0.0	0.9589549375546573	-0.5488514642784056	0.0	0.9811562761524852	-0.6702431623190862	0.0	0.9672018565260758	-0.8009309157438369	0.0	1.0056118897786612	-0.8395160913506369	0.0	0.999809698854794	-0.8354751537313426	0.0	0.9521744927701703	-0.813693047356944	0.0	0.9894173868622642	-0.3817996044210635	0.0	1.0538681090038724	-0.31118395553757916	0.0	1.045521909094103	-0.36180400411755037	0.0	0.9748886164856376	-0.3865424523123375	0.0	0.8873041563396997	-0.3976893256468044	0.0	0.8133495452946482	-0.4168780822953378	0.0	0.9781302582682893	-0.38963146290621886	0.0	0.9128255592485335	-0.40937724733630904	0.0	0.8676715191114256	-0.4369841952604847	0.0
58	1.9517460317460316	0.95197077193468	-0.5616409850850127	0.0	0.9523076172341121	-0.5551533358085389	0.0	0.9903124052238892	-0.6759828347092538	0.0	0.9666967352557059	-0.8069145327767623	0.0	1.0083488167261148	-0.8500838096203351	0.0	0.9961289271559575	-0.8510937900933427	0.0	0.9539304117958096	-0.8243687072958245	0.0	0.9565172881008128	-0.5548206531709465	0.0	0.9850893545558809	-0.6749650895581493	0.0	0.9663940396690213	-0.8041453510321424	0.0	1.0056602586458063	-0.8416140734185078	0.0	0.9999404292275342	-0.837537073343679	0.0	0.9508703060833308	-0.8174032627134868	0.0	0.9896719331176955	-0.3888503946760243	0.0	1.0534136100149738	-0.31909982264704023	0.0	1.0449861312645186	-0.3688337601186886	0.0	0.9752568300541264	-0.394993202960059	0.0	0.8879813802224442	-0.40973565561990066	0.0	0.8142455538866332	-0.4342958941764929	0.0	0.9782682508502437	-0.3976744877847534	0.0	0.909838058870071	-0.42165444476174285	0.0	0.861927087420802	-0.45410170754692386	0.0
59	1.985396825396825	0.9498817483156536	-0.5703995405454992	0.0	0.9496492382720221	-0.5642809994806144	0.0	0.9954838450974145	-0.6832160437544238	0.0	0.964089842472387	-0.8126360210264406	0.0	1.0068528277488733	-0.8525418966832068	0.0	0.9944045057752894	-0.8536710343913181	0.0	0.9507554096754693	-0.8294785036273551	0.0	0.9541404371486344	-0.5641107323534551	0.0	0.990257308589925	-0.6821787606692991	0.0	0.965041844447678	-0.8088852923283504	0.0	1.0061726561224071	-0.8446582297656651	0.0	1.0007579363133676	-0.8402909808889728	0.0	0.9490158170429474	-0.8227813272901434	0.0	0.990040443702379	-0.3996511292560879	0.0	1.052030226607434	-0.330914205515076	0.0	1.0439957353679952	-0.3796871004766245	0.0	0.9750221750757683	-0.4080318122942591	0.0	0.8912813165373367	-0.43100735865977974	0.0	0.8216729967519075	-0.4657728698995184	0.0	0.9790184469263012	-0.4105172687307451	0.0	0.9090094587335894	-0.44295079611992116	0.0	0.8609222959591193	-0.4829882072751562	0.0
60	2.019047619047619	0.9472583112023341	-0.5829528517213713	0.0	0.9463132594655718	-0.5773363871412677	0.0	1.0013213532553435	-0.6930731471576312	0.0	0.9611836640527479	-0.82052644478098	0.0	1.0055796460387885	-0.8562627895899969	0.0	0.9927675495453626	-0.8576388619976312	0.0	0.9473279190032716	-0.8366395442151912	0.0	0.9516820506097539	-0.5771455053886074	0.0	0.9963110186905436	-0.6920189482972351	0.0	0.9636125592696463	-0.8154158014742547	0.0	1.0073210343282049	-0.8495019383907516	0.0	1.0023254461406694	-0.8446455607127643	0.0	0.9470768260972975	-0.8298955694597677	0.0	0.9900894835755104	-0.4143307196897788	0.0	1.049273192464106	-0.3465232392940948	0.0	1.042291926470764	-0.3943857507357857	0.0	0.973950397277242	-0.42567822473199524	0.0	0.8980919601122292	-0.4609376086123627	0.0	0.8381307191814554	-0.5091077475582816	0.0	0.9796481003485906	-0.427917129396914	0.0	0.9122819790418765	-0.47223395475881785	0.0	0.8687066975724209	-0.5215133958309336	0.0
61	2.0526984126984122	0.9439604523486423	-0.5998643187023788	0.0	0.9425576412766324	-0.5948294335367548	0.0	1.0070699269244934	-0.7059618354424649	0.0	0.9586437653987435	-0.8311299195614064	0.0	1.00472441775128	-0.862472248375661	0.0	0.9915351738514739	-0.8641799642480924	0.0	0.9444611413039073	-0.8463090348939997	0.0	0.9488700194492496	-0.5943455563805784	0.0	1.0024905139409	-0.7048042888490554	0.0	0.9624699485009014	-0.824485359235883	0.0	1.0089768432187196	-0.85721730357538	0.0	1.0041953197824494	-0.8518186046390539	0.0	0.9454646539673923	-0.8391933229244694	0.0	0.9890992106096543	-0.4328382296564245	0.0	1.0445097840775088	-0.3654385790886859	0.0	1.0394052227044817	-0.4126451889749205	0.0	0.9720455660951576	-0.44763931013316427	0.0	0.9093467848531922	-0.4973962139418722	0.0	0.8652453097421018	-0.5590650459302794	0.0	0.9790311278185184	-0.4492577158350209	0.0	0.9210490743439298	-0.5070154934043769	0.0	0.888390463093882	-0.56520312393709	0.0
62	2.086349206349206	0.940119099212613	-0.620968995215816	0.0	0.938867448384418	-0.6166249036184109	0.0	1.0119277616627067	-0.7224340779828423	0.0	0.9569494057975665	-0.8451369748727702	0.0	1.0041454100864158	-0.8725936993684074	0.0	0.9906744603568046	-0.8746132628341146	0.0	0.942572749191254	-0.859095893671533	0.0	0.9454737324217776	-0.6156451016927637	0.0	1.007719763608836	-0.7210642087021158	0.0	0.9617501610868887	-0.8371684049928297	0.0	1.0106258826076333	-0.8687040348429363	0.0	1.0054508419200452	-0.8628957971176707	0.0	0.9443669830215161	-0.8514665439432887	0.0	0.9863094061785922	-0.454705174986698	0.0	1.037146807379956	-0.3867013766534046	0.0	1.0347807552319321	-0.4336911783595295	0.0	0.969481589931071	-0.47304426301347796	0.0	0.9256264585569901	-0.5364519300099635	0.0	0.9029582863142254	-0.6076635709050389	0.0	0.9762891548652994	-0.4735679826863918	0.0	0.9353263948835988	-0.5433185313898359	0.0	0.9201204143851104	-0.6074625626751973	0.0
